<svg width="16" height="16" viewBox="0 0 111 111" fill="none" xmlns="http://www.w3.org/2000/svg">
    <path d="M55.3672 7C64.4537 7 71.8199 10.0133 71.8203 13.7305C71.8203 13.9832 71.8739 14.2525 71.8076 14.498L71.7334 14.627C69.9378 17.8647 69.3921 29.1645 79.8496 36.3682C98.1338 43.3716 110.709 57.8998 110.709 74.2539C110.709 97.2095 85.9315 101.5 55.3672 101.5C24.8029 101.5 0.0256926 97.2094 0.0253906 74.2539C0.0253906 57.9002 12.6002 43.3727 30.8838 36.3691C41.5083 29.0509 40.7761 17.5043 38.9141 14.4785C38.8478 14.233 38.9141 13.9832 38.9141 13.7305C38.9145 10.0133 46.2807 7.00002 55.3672 7ZM56.2754 38.5078C54.8751 38.5079 53.7403 39.643 53.7402 41.043V71.4648C53.7402 72.8649 54.8751 73.9999 56.2754 74C57.6758 74 58.8115 72.865 58.8115 71.4648V41.043C58.8114 39.6429 57.6757 38.5078 56.2754 38.5078ZM44.543 37.5518C43.4473 36.6799 41.8516 36.8606 40.9795 37.9561L22.0322 61.7598C21.1602 62.8553 21.3418 64.4504 22.4375 65.3223C23.5332 66.1939 25.128 66.0124 26 64.917L44.9482 41.1143C45.8202 40.0188 45.6385 38.4237 44.543 37.5518ZM71.6377 37.8428C70.7657 36.7473 69.1709 36.5658 68.0752 37.4375C66.9795 38.3094 66.7979 39.9045 67.6699 41L86.6172 64.8027C87.4892 65.8983 89.0849 66.0799 90.1807 65.208C91.2762 64.3361 91.457 62.741 90.585 61.6455L71.6377 37.8428Z" fill="white"/>
</svg>
