<?xml version="1.0" encoding="iso-8859-1"?>
<!-- Uploaded to: SVG Repo, www.svgrepo.com, Generator: SVG Repo Mixer Tools -->
<svg fill="none" height="16" width="16" version="1.1" id="Layer_1" xmlns="http://www.w3.org/2000/svg"
     xmlns:xlink="http://www.w3.org/1999/xlink"
     viewBox="0 0 512 512" xml:space="preserve">
	<g fill="#EDA200">
		<path d="M372.364,449.939h-23.273H162.909h-23.273h-23.273v38.788c0,12.851,10.42,23.273,23.273,23.273h232.727
			c12.853,0,23.273-10.422,23.273-23.273v-38.788H372.364z"/>
        <path d="M387.98,93.958C368.794,38.56,315.935,0,256,0S143.206,38.56,124.02,93.958C54.345,101.745,0,161.008,0,232.727
			c0,69.067,50.407,126.585,116.364,137.697v32.97h23.273h23.273h186.182h23.273h23.273v-32.97
			C461.593,359.312,512,301.794,512,232.727C512,161.008,457.655,101.745,387.98,93.958z"/>
	</g>
</svg>