<svg width="16" height="16" viewBox="0 0 111 111" fill="none" xmlns="http://www.w3.org/2000/svg">
    <path d="M55.3418 7C64.4283 7 71.7945 10.0133 71.7949 13.7305C71.7949 13.9832 71.8485 14.2525 71.7822 14.498L71.708 14.627C69.9124 17.8647 69.3667 29.1645 79.8242 36.3682C98.1084 43.3716 110.684 57.8998 110.684 74.2539C110.683 97.2095 85.9061 101.5 55.3418 101.5C24.7775 101.5 0.00030194 97.2094 0 74.2539C0 57.9002 12.5748 43.3727 30.8584 36.3691C41.4829 29.0509 40.7507 17.5043 38.8887 14.4785C38.8224 14.233 38.8887 13.9832 38.8887 13.7305C38.8891 10.0133 46.2553 7.00002 55.3418 7Z" fill="#E7EFFD"/>
    <path d="M6.80762 80.084C7.34751 81.8216 8.13451 83.2791 9.09961 84.5303C11.048 87.0561 14.0734 89.1964 18.4072 90.9023C25.3976 93.6539 34.8479 94.9232 46 95.3379V101.343C23.1367 100.519 5.05001 96.1371 0.899414 81.2598L6.80762 80.084Z" fill="#3574F0"/>
    <path d="M109.879 80.9053C105.936 95.998 87.8938 100.472 65 101.331V95.3271C76.0145 94.9003 85.3522 93.6278 92.2764 90.9023C96.6102 89.1964 99.6356 87.0561 101.584 84.5303C102.604 83.2079 103.423 81.6547 103.964 79.7842L109.879 80.9053Z" fill="#3574F0"/>
    <path d="M32.1436 42.3096C20.1511 47.1228 11.6621 55.1901 8.00684 64.2246L2.37988 62.0977C6.63579 51.4547 16.3044 42.4604 28.9551 37.1348L32.1436 42.3096Z" fill="#3574F0"/>
    <path d="M81.6406 37.0967C94.171 42.349 103.789 51.1976 108.138 61.6855L102.515 63.835C98.7637 54.9321 90.3091 47.0056 78.4336 42.2666L81.6406 37.0967Z" fill="#3574F0"/>
    <path d="M55.3418 7C64.4283 7 71.7945 10.0133 71.7949 13.7305C71.7949 13.8081 71.7996 13.8872 71.8047 13.9668C71.8162 14.1463 71.8281 14.328 71.7822 14.498L71.708 14.627C70.476 16.8484 69.8327 22.865 72.9277 28.75L67.7588 31.8057C66.5943 29.652 65.8062 27.4629 65.3223 25.3506C64.4727 21.6428 64.4971 17.8435 65.2803 14.7812C65.1116 14.7001 64.9206 14.613 64.7041 14.5244C62.6099 13.6678 59.3028 13 55.3418 13C51.3808 13 48.0737 13.6678 45.9795 14.5244C45.7623 14.6133 45.5705 14.6998 45.4014 14.7812C45.6364 15.7019 45.7914 16.639 45.8828 17.541C46.11 19.7817 46.0116 22.374 45.418 25.0938C44.9293 27.3324 44.1006 29.6641 42.8438 31.9531L37.6709 28.9062C40.9339 22.8352 40.1865 16.5875 38.8887 14.4785C38.8446 14.3152 38.8593 14.1501 38.874 13.9834C38.8814 13.8995 38.8887 13.8151 38.8887 13.7305C38.8891 10.0133 46.2553 7.00002 55.3418 7Z" fill="#3574F0"/>
    <path d="M56.4226 88.5625C66.6851 88.5625 75.5052 82.3916 77.7523 73.5712H70.9105C68.6974 78.6689 63.2642 82.3583 56.4226 82.3583C47.032 82.3583 40.2574 74.8121 40.2574 64.2812C40.2574 53.7504 47.032 46.2045 56.4226 46.2045C63.2642 46.2045 68.6974 49.8936 70.9105 54.9913H77.7523C75.5052 46.1709 66.6851 40 56.4226 40C43.1417 40 33.248 50.3631 33.248 64.2812C33.248 78.1993 43.1417 88.5625 56.4226 88.5625Z" fill="#3574F0"/>
</svg>
