<svg width="16" height="16" viewBox="0 0 111 111" fill="none" xmlns="http://www.w3.org/2000/svg">
    <path d="M55.3672 10C59.6193 10 63.3294 10.7107 65.8652 11.748C67.1404 12.2697 67.9739 12.8154 68.4414 13.2676C68.7225 13.5394 68.7985 13.704 68.8174 13.7588C67.6773 16.2969 67.2962 20.4196 68.2725 24.6807C69.3706 29.4733 72.2442 34.7724 78.1475 38.8389L78.4424 39.042L78.7764 39.1699C96.3315 45.8941 107.709 59.5483 107.709 74.2539L107.705 74.7344C107.622 79.6607 106.256 83.4183 103.984 86.3633C101.61 89.4413 98.071 91.8549 93.4004 93.6934C83.9588 97.4097 70.6276 98.5 55.3672 98.5C40.1067 98.5 26.7756 97.4097 17.334 93.6934C12.6634 91.8549 9.12444 89.4413 6.75 86.3633C4.40494 83.3233 3.02547 79.4174 3.02539 74.2539C3.02539 59.5486 14.4025 45.8952 31.957 39.1709L32.291 39.043L32.5859 38.8398C38.5847 34.7077 41.4541 29.3043 42.5127 24.4541C43.0376 22.0494 43.1197 19.7753 42.9238 17.8438C42.774 16.3655 42.4437 14.9326 41.916 13.7588C41.9347 13.7043 42.0114 13.5399 42.293 13.2676C42.7605 12.8154 43.5939 12.2697 44.8691 11.748C47.2464 10.7756 50.6557 10.0897 54.5762 10.0078L55.3672 10Z" fill="#E7EFFD" stroke="#3574F0" stroke-width="6"/>
    <path d="M60.3921 89H67.9587V82.1426H61.3844C58.9035 82.1426 57.0429 80.2838 57.0429 77.8049V53.5565H67.9587L68 46.6991H57.0429V36H49.8897V43.1879C49.8897 45.2533 48.4426 46.6991 46.3752 46.6991H41.0414L41 53.5565H49.1868L49.2282 78.5075C49.2282 84.5389 53.9418 89 60.3921 89Z" fill="#3574F0"/>
</svg>
